# xmcd CD database file
#
# Track frame offsets:
#	150
#	21497
#	36745
#	51757
#	66059
#	81584
#	96844
#	111553
#	133961
#	151829
#	169445
#	183163
#	196445
#	213969
#
# Disc length: 3068 seconds
#
# Revision: 0
# Processed by: cddbd v1.5.2PL0 Copyright (c) Steve Scherf et al.
# Submitted via: CdAid 2001.05.15.01
#
DISCID=d60bfa0e
DTITLE=Krauss Alison - Essential
DYEAR=1900
DGENRE=
TTITLE0=Simple Love
TTITLE1=Sister Rosetta Goes Before Us
TTITLE2=Let Me Touch You For A While
TTITLE3=The Lucky One
TTITLE4=So Long, So Wrong
TTITLE5=Empty Hearts
TTITLE6=Everytime You Say Goodbye
TTITLE7=Wish I Still Had You
TTITLE8=Broadway
TTITLE9=Baby, Now That I've Found You
TTITLE10=Sawing On The Strings
TTITLE11=Restless
TTITLE12=When You Say Nothing At All
TTITLE13=A Living Prayer
EXTD=
EXTT0=
EXTT1=
EXTT2=
EXTT3=
EXTT4=
EXTT5=
EXTT6=
EXTT7=
EXTT8=
EXTT9=
EXTT10=
EXTT11=
EXTT12=
EXTT13=
PLAYORDER=
